<svg xmlns="http://www.w3.org/2000/svg" xmlns:xlink="http://www.w3.org/1999/xlink" viewBox="0 0 300 300" width="300" height="300" preserveAspectRatio="xMidYMid meet" style="width: 100%; height: 100%; transform: translate3d(0px, 0px, 0px); content-visibility: visible;" id="Hammer"><defs><clipPath id="__lottie_element_8704"><rect width="300" height="300" x="0" y="0"/></clipPath></defs><g clip-path="url(#__lottie_element_8704)"><g transform="matrix(1.00001060962677,0,0,1.00001060962677,39.74883270263672,40.393836975097656)" opacity="1" style="display: block;"><g opacity="1" transform="matrix(1,0,0,1,110.125,110.125)"><path fill="rgb(0,0,0)" fill-opacity="1" d=" M77.42400360107422,-100.125 C77.42400360107422,-100.125 -77.4229965209961,-100.125 -77.4229965209961,-100.125 C-89.96099853515625,-100.125 -100.125,-89.96099853515625 -100.125,-77.4229965209961 C-100.125,-77.4229965209961 -100.125,77.42400360107422 -100.125,77.42400360107422 C-100.125,89.96199798583984 -89.96099853515625,100.125 -77.4229965209961,100.125 C-77.4229965209961,100.125 77.42400360107422,100.125 77.42400360107422,100.125 C89.96099853515625,100.125 100.125,89.96199798583984 100.125,77.42400360107422 C100.125,77.42400360107422 100.125,-77.4229965209961 100.125,-77.4229965209961 C100.125,-89.96099853515625 89.96099853515625,-100.125 77.42400360107422,-100.125z"/><path stroke-linecap="round" stroke-linejoin="round" fill-opacity="0" stroke="rgb(245,144,61)" stroke-opacity="1" stroke-width="4" d=" M77.42400360107422,-100.125 C77.42400360107422,-100.125 -77.4229965209961,-100.125 -77.4229965209961,-100.125 C-89.96099853515625,-100.125 -100.125,-89.96099853515625 -100.125,-77.4229965209961 C-100.125,-77.4229965209961 -100.125,77.42400360107422 -100.125,77.42400360107422 C-100.125,89.96199798583984 -89.96099853515625,100.125 -77.4229965209961,100.125 C-77.4229965209961,100.125 77.42400360107422,100.125 77.42400360107422,100.125 C89.96099853515625,100.125 100.125,89.96199798583984 100.125,77.42400360107422 C100.125,77.42400360107422 100.125,-77.4229965209961 100.125,-77.4229965209961 C100.125,-89.96099853515625 89.96099853515625,-100.125 77.42400360107422,-100.125z"/></g></g><g transform="matrix(1,0,0,1.0348471403121948,94.75,185.2721710205078)" opacity="1" style="display: block;"><g opacity="1" transform="matrix(1,0,0,1,32.73699951171875,9.621000289916992)"><path fill="rgb(255,255,255)" fill-opacity="1" d=" M32.48699951171875,0 C32.48699951171875,5.176000118255615 28.290000915527344,9.371000289916992 23.11400032043457,9.371000289916992 C23.11400032043457,9.371000289916992 -23.114999771118164,9.371000289916992 -23.114999771118164,9.371000289916992 C-28.290000915527344,9.371000289916992 -32.48699951171875,5.176000118255615 -32.48699951171875,0 C-32.48699951171875,-5.176000118255615 -28.290000915527344,-9.371000289916992 -23.114999771118164,-9.371000289916992 C-23.114999771118164,-9.371000289916992 23.11400032043457,-9.371000289916992 23.11400032043457,-9.371000289916992 C28.290000915527344,-9.371000289916992 32.48699951171875,-5.176000118255615 32.48699951171875,0z"/></g></g><g transform="matrix(0.9998619556427002,0,0,0.9998619556427002,113.9345703125,93.88958740234375)" opacity="1" style="display: block;"><g opacity="1" transform="matrix(1,0,0,1,69.41899871826172,69.58899688720703)"><path fill="rgb(255,255,255)" fill-opacity="1" d=" M-22.604999542236328,-8.890999794006348 C-22.604999542236328,-8.890999794006348 5.1020002365112305,18.81800079345703 5.1020002365112305,18.81800079345703 C8.890000343322754,22.604999542236328 15.031000137329102,22.606000900268555 18.819000244140625,18.819000244140625 C22.604999542236328,15.029999732971191 22.604999542236328,8.888999938964844 18.819000244140625,5.103000164031982 C18.819000244140625,5.103000164031982 -8.890000343322754,-22.606000900268555 -8.890000343322754,-22.606000900268555 C-8.890000343322754,-22.606000900268555 -22.604999542236328,-8.890999794006348 -22.604999542236328,-8.890999794006348z"/></g><g opacity="1" transform="matrix(1,0,0,1,37.89699935913086,37.89799880981445)"><path fill="rgb(255,255,255)" fill-opacity="1" d=" M33.86000061035156,-12.430000305175781 C33.86000061035156,-12.430000305175781 12.430000305175781,-33.86000061035156 12.430000305175781,-33.86000061035156 C8.642999649047852,-37.64799880981445 2.502000093460083,-37.64799880981445 -1.2869999408721924,-33.86000061035156 C-4.5269999504089355,-30.618000030517578 -4.986000061035156,-25.658000946044922 -2.678999900817871,-21.91900062561035 C-2.678999900817871,-21.91900062561035 -21.920000076293945,-2.677999973297119 -21.920000076293945,-2.677999973297119 C-25.658000946044922,-4.986000061035156 -30.618999481201172,-4.5279998779296875 -33.861000061035156,-1.2860000133514404 C-37.64799880981445,2.502000093460083 -37.64799880981445,8.642999649047852 -33.861000061035156,12.430000305175781 C-33.861000061035156,12.430000305175781 -12.430000305175781,33.861000061035156 -12.430000305175781,33.861000061035156 C-8.642000198364258,37.64799880981445 -2.500999927520752,37.64799880981445 1.2860000133514404,33.861000061035156 C4.5269999504089355,30.618999481201172 4.985000133514404,25.658000946044922 2.678999900817871,21.92099952697754 C2.678999900817871,21.92099952697754 21.92099952697754,2.677999973297119 21.92099952697754,2.677999973297119 C25.658000946044922,4.986000061035156 30.6200008392334,4.5279998779296875 33.86000061035156,1.2860000133514404 C37.64799880981445,-2.500999927520752 37.64699935913086,-8.642999649047852 33.86000061035156,-12.430000305175781z"/></g></g></g></svg>